<?xml version="1.0" standalone="no"?>
<!DOCTYPE svg PUBLIC "-//W3C//DTD SVG 20010904//EN"
 "http://www.w3.org/TR/2001/REC-SVG-20010904/DTD/svg10.dtd">
<svg version="1.0" xmlns="http://www.w3.org/2000/svg"
 width="400.000000pt" height="400.000000pt" viewBox="0 0 400.000000 400.000000"
 preserveAspectRatio="xMidYMid meet">
<metadata>
Created by potrace 1.11, written by Peter Selinger 2001-2013
</metadata>
<g transform="translate(0.000000,400.000000) scale(0.100000,-0.100000)"
fill="#000000" stroke="none">
<path d="M1826 3450 c-500 -63 -933 -377 -1145 -830 -256 -547 -149 -1192 269
-1624 257 -265 572 -416 930 -445 742 -60 1395 432 1551 1169 32 152 33 400 1
558 -117 584 -564 1034 -1145 1153 -115 23 -350 33 -461 19z m-561 -923 c-171
-171 -357 -360 -415 -420 l-105 -107 413 -413 c226 -226 412 -418 412 -425 0
-6 -6 -12 -14 -12 -13 0 -837 831 -845 852 -6 17 842 859 853 848 7 -7 -93
-115 -299 -323z m2025 -525 c0 -17 -829 -852 -846 -852 -8 0 -14 5 -14 12 0 6
187 198 415 427 l415 416 -417 416 c-274 275 -413 421 -408 429 9 14 855 -826
855 -848z m-1450 185 c0 -324 -9 -410 -53 -497 -25 -51 -42 -70 -81 -95 -47
-29 -54 -30 -160 -30 -97 0 -116 3 -156 24 -25 13 -47 25 -49 27 -1 1 4 25 14
53 l16 50 52 -25 c64 -30 155 -33 207 -6 77 38 90 109 90 485 l0 277 60 0 60
0 0 -263z m636 244 c198 -90 227 -379 49 -501 -60 -41 -105 -50 -262 -50
l-143 0 0 -155 0 -155 -55 0 -55 0 0 440 0 440 213 0 c184 0 217 -3 253 -19z"/>
<path d="M2124 2337 c-2 -7 -3 -87 -2 -177 l3 -165 145 0 c125 0 149 3 177 19
94 57 101 232 12 299 -38 27 -91 36 -217 37 -83 0 -114 -3 -118 -13z"/>
</g>
</svg>
